<?xml version="1.0" standalone="no"?>
<!DOCTYPE svg PUBLIC "-//W3C//DTD SVG 20010904//EN"
 "http://www.w3.org/TR/2001/REC-SVG-20010904/DTD/svg10.dtd">
<svg version="1.0" xmlns="http://www.w3.org/2000/svg"
 width="415.000000pt" height="415.000000pt" viewBox="0 0 415.000000 415.000000"
 preserveAspectRatio="xMidYMid meet">
<metadata>
Created by potrace 1.14, written by Peter Selinger 2001-2017
</metadata>
<g transform="translate(0.000000,415.000000) scale(0.100000,-0.100000)"
fill="#000000" stroke="none">
<path d="M1519 3736 c-2 -2 -35 -7 -73 -11 -38 -3 -79 -11 -92 -16 -13 -4 -24
-7 -24 -4 0 2 -42 -8 -92 -21 -108 -29 -246 -83 -338 -132 -59 -31 -217 -129
-230 -142 -3 -3 -27 -23 -55 -44 -121 -95 -298 -298 -378 -434 -90 -154 -177
-376 -202 -512 -1 -8 -8 -46 -16 -85 -15 -76 -18 -391 -5 -485 86 -625 531
-1158 1131 -1355 181 -60 298 -78 500 -79 99 -1 205 2 235 7 449 62 847 293
1115 649 256 339 368 730 332 1160 l-8 88 178 0 178 1 225 291 c124 161 227
296 228 300 2 5 -488 7 -1090 6 l-1093 -3 -70 -24 c-326 -110 -515 -367 -519
-706 l-1 -110 -407 0 c-225 0 -408 -3 -408 -6 0 -6 39 -59 50 -69 3 -3 62 -75
131 -160 68 -85 126 -157 129 -160 3 -3 24 -27 45 -55 22 -27 50 -61 61 -75
12 -14 135 -164 273 -335 138 -170 254 -309 258 -307 4 1 7 82 7 179 l1 178
453 0 453 0 190 293 c104 162 189 297 189 300 0 4 -217 7 -482 7 -266 -1 -505
3 -532 8 -105 18 -197 90 -241 189 -23 51 -28 78 -31 160 l-3 98 810 0 809 0
1 -27 c0 -16 3 -37 5 -48 8 -32 8 -275 1 -330 -4 -27 -11 -75 -17 -105 -6 -30
-13 -66 -16 -80 -9 -50 -58 -187 -94 -265 -104 -227 -265 -420 -485 -583 -30
-23 -168 -101 -215 -123 -117 -54 -271 -104 -360 -116 -19 -3 -55 -9 -80 -14
-45 -8 -358 -6 -395 3 -11 3 -38 9 -60 13 -22 4 -51 9 -63 11 -13 3 -72 21
-130 40 -219 73 -391 181 -562 353 -164 165 -266 323 -343 531 -60 161 -82
290 -82 480 0 186 6 244 40 375 68 262 188 470 384 665 173 172 342 279 561
353 114 39 114 39 280 66 105 18 337 10 462 -15 282 -57 538 -189 733 -379 20
-19 38 -35 41 -35 2 0 42 25 90 56 l86 56 -33 36 c-19 19 -45 45 -59 58 -14
12 -41 36 -60 53 -93 84 -309 213 -455 272 -82 33 -206 72 -270 84 -28 5 -42
7 -125 21 -39 7 -365 15 -371 10z"/>
</g>
</svg>
